<?xml version="1.0" encoding="utf-8"?>
<!-- Generator: Adobe Illustrator 17.1.0, SVG Export Plug-In . SVG Version: 6.00 Build 0)  -->
<!DOCTYPE svg PUBLIC "-//W3C//DTD SVG 1.1//EN" "http://www.w3.org/Graphics/SVG/1.1/DTD/svg11.dtd">
<svg version="1.1" id="Layer_1" xmlns="http://www.w3.org/2000/svg" xmlns:xlink="http://www.w3.org/1999/xlink" x="0px" y="0px"
	 viewBox="0 0 85.43 73.953" style="enable-background:new 0 0 85.43 73.953;" xml:space="preserve">
<style type="text/css">
	.st0{fill:#403F38;}
	.st1{fill:#0065A4;}
	.st2{fill:#00AEEF;}
	.st3{fill:#77787B;}
</style>
<path class="st0" d="M5.724,33.424c-1.863,0-3.388-1.524-3.388-3.388V5.41c0-1.864,1.525-3.388,3.388-3.388h4.142
	c1.863,0,3.388,1.524,3.388,3.388v14.686c0,1.863,1.525,3.388,3.388,3.388h9.556c1.863,0,3.388-1.525,3.388-3.388V5.41
	c0-1.864,1.525-3.388,3.388-3.388h4.219c1.863,0,3.388,1.524,3.388,3.388v24.626c0,1.864-1.525,3.388-3.388,3.388H5.724z"/>
<path class="st1" d="M48.157,5.445c0-1.863,1.524-3.388,3.388-3.388h28.16c1.864,0,3.389,1.525,3.389,3.388v4.143
	c0,1.863-1.525,3.388-3.389,3.388H61.486c-1.864,0-3.389,1.525-3.389,3.388v2.673c0,1.863,1.525,3.388,3.389,3.388l18.219-0.001
	c1.864,0,3.389,1.525,3.389,3.389v4.222c0,1.864-1.525,3.389-3.389,3.389h-28.16c-1.864,0-3.388-1.525-3.388-3.389V5.445z"/>
<path class="st2" d="M83.094,68.543c0,1.863-1.524,3.388-3.389,3.388l-28.16-0.001c-1.863,0-3.388-1.525-3.388-3.388V64.4
	c0-1.863,1.525-3.388,3.388-3.388H69.77c1.863,0,3.387-1.525,3.386-3.388V54.95c0-1.863-1.525-3.388-3.388-3.388H51.545
	c-1.863,0-3.388-1.525-3.388-3.388v-4.222c0-1.863,1.525-3.388,3.388-3.388h28.16c1.865,0,3.389,1.525,3.389,3.388V68.543z"/>
<path class="st3" d="M37.193,40.564c1.863,0,3.388,1.525,3.388,3.388v24.59c0,1.863-1.525,3.388-3.388,3.388h-4.142
	c-1.863,0-3.388-1.525-3.388-3.388v-14.65c0-1.864-1.525-3.389-3.388-3.389H16.72c-1.863,0-3.388,1.525-3.388,3.389v14.65
	c0,1.863-1.525,3.388-3.388,3.388h-4.22c-1.863,0-3.388-1.525-3.388-3.388v-24.59c0-1.863,1.525-3.388,3.388-3.388H37.193z"/>
<g>
</g>
<g>
</g>
<g>
</g>
<g>
</g>
<g>
</g>
<g>
</g>
</svg>
