<?xml version="1.0" encoding="utf-8"?>
<!-- Generator: Adobe Illustrator 17.1.0, SVG Export Plug-In . SVG Version: 6.00 Build 0)  -->
<!DOCTYPE svg PUBLIC "-//W3C//DTD SVG 1.1//EN" "http://www.w3.org/Graphics/SVG/1.1/DTD/svg11.dtd">
<svg version="1.1" id="Layer_1" xmlns="http://www.w3.org/2000/svg" xmlns:xlink="http://www.w3.org/1999/xlink" x="0px" y="0px"
	 viewBox="0 0 749.963 175.491" style="enable-background:new 0 0 749.963 175.491;" xml:space="preserve">
<style type="text/css">
	.st0{fill-rule:evenodd;clip-rule:evenodd;fill:url(#SVGID_1_);}
	.st1{fill-rule:evenodd;clip-rule:evenodd;fill:url(#SVGID_2_);}
	.st2{fill-rule:evenodd;clip-rule:evenodd;fill:url(#SVGID_3_);}
	.st3{opacity:0.3;fill-rule:evenodd;clip-rule:evenodd;fill:#80806F;}
	.st4{opacity:0.5;fill-rule:evenodd;clip-rule:evenodd;fill:#80806F;}
	.st5{fill-rule:evenodd;clip-rule:evenodd;fill:#80806F;}
</style>
<linearGradient id="SVGID_1_" gradientUnits="userSpaceOnUse" x1="34.5907" y1="50.3523" x2="178.996" y2="50.3523">
	<stop  offset="0.26" style="stop-color:#2391D6"/>
	<stop  offset="1" style="stop-color:#470627"/>
</linearGradient>
<path class="st0" d="M177.66,82.953l1.066-10.068C131.622,49.665,18.149,4.423,29.343,67.957
	C12.254-7.351,130.325,40.622,179.615,65.036l1.795-7.341c2.543-8.507-1.744-13.996-11.016-17.279
	C143.024,28.356,63.883,0.783,37.339,18.796c-11.758,7.977-17.681,26.913-8.013,49.684c5.026-11.439,11.456-18.261,31.511-18.088
	c37.262,0.322,73.929,17.475,108.365,36.308C173.448,88.675,176.744,88.505,177.66,82.953z"/>
<linearGradient id="SVGID_2_" gradientUnits="userSpaceOnUse" x1="81.3934" y1="167.2529" x2="191.0123" y2="49.701">
	<stop  offset="0" style="stop-color:#151D10"/>
	<stop  offset="0.17" style="stop-color:#394821"/>
	<stop  offset="0.74" style="stop-color:#A5CD39"/>
	<stop  offset="1" style="stop-color:#FFFFFF"/>
</linearGradient>
<path class="st1" d="M111.326,138.56c10.862-16.715,19.219-39.573,22.471-60.725c0.863-5.605,0.214-5.741,5.28-3.348l11.119,6.041
	c-0.378,23.966-16.882,52.141-37.102,57.844c24.288-4.682,39.769-30.991,43.544-55.91l11.261,5.484
	c3.786,1.848,5.572,2.369,4.372,6.732c-6.403,23.173-37.772,62.023-61.403,43.901L111.326,138.56z"/>
<linearGradient id="SVGID_3_" gradientUnits="userSpaceOnUse" x1="30.3646" y1="28.47" x2="132.2444" y2="185.3512">
	<stop  offset="0" style="stop-color:#3D1D0C"/>
	<stop  offset="0.29" style="stop-color:#BE6725"/>
	<stop  offset="0.48" style="stop-color:#F48120"/>
	<stop  offset="0.78" style="stop-color:#FFCA05"/>
	<stop  offset="1" style="stop-color:#FFFFFF"/>
</linearGradient>
<path class="st2" d="M46.795,54.471c-6.78,2.408-12.383,6.952-15.584,14.086c-1.684,3.76-0.117,5.401,1.313,9.276
	c21.861,59.247,46.518,78.727,72.87,78.432c15.24-0.178,24.903-4.307,34.763-15.406l0.049-0.03l0.301-0.346l-0.037,0.015
	l0.098-0.103l-0.366,0.234c-17.611,8.55-26.945,5.351-36.432-9.2c-13.588-20.852-22.188-45.068-27.458-70.822
	c-1.162-5.684-0.796-6.318-6.902-7.356c-5.384-0.911-11.041-1.008-15.741-0.453c10.342,54.718,37.731,114.603,83.708,89.637
	C87.634,172.435,59.931,109.099,46.795,54.471z"/>
<path class="st3" d="M152.501,142.621c25.751,0,46.623,3.632,46.623,8.117c0,4.479-20.872,8.111-46.623,8.111
	c-13.949,0-26.47-1.069-35.014-2.759c0.307-0.077,0.619-0.152,0.926-0.234c9.706-2.578,17.415-7.526,21.148-12.915
	C143.67,142.728,148.011,142.621,152.501,142.621z"/>
<path class="st4" d="M141.603,144.91c18.661,0,33.789,2.63,33.789,5.874c0,3.253-15.128,5.885-33.789,5.885
	c-8.114,0-15.56-0.494-21.385-1.326c7.67-2.332,13.939-6.134,17.756-10.397C139.165,144.919,140.377,144.91,141.603,144.91z"/>
<path class="st5" d="M135.622,147.241c10.256,0.202,18.24,1.709,18.24,3.542c0,1.975-9.175,3.572-20.493,3.572
	c-3.319,0-6.451-0.136-9.224-0.384C128.71,152.174,132.63,149.839,135.622,147.241z"/>
<g>
	<path d="M212.14,93.543c0-17.436,12.887-29.059,28.891-29.059c9.938,0,16.846,4.38,21.814,10.528l-5.559,3.453
		c-3.538-4.548-9.518-7.749-16.256-7.749c-12.298,0-21.647,9.434-21.647,22.826c0,13.308,9.35,22.91,21.647,22.91
		c6.738,0,12.297-3.285,15.076-6.064V98.934h-19.288v-6.233h26.279V113c-5.222,5.812-12.887,9.686-22.067,9.686
		C225.027,122.686,212.14,110.979,212.14,93.543z"/>
	<path d="M270.176,101.208c0-11.792,8.423-21.311,20.046-21.311c12.298,0,19.541,9.603,19.541,21.815v1.601h-32.934
		c0.506,7.665,5.896,14.066,14.656,14.066c4.633,0,9.35-1.854,12.55-5.139l3.032,4.128c-4.043,4.043-9.518,6.232-16.172,6.232
		C278.851,122.602,270.176,113.926,270.176,101.208z M290.138,85.121c-8.676,0-12.971,7.328-13.309,13.561h26.701
		C303.447,92.617,299.404,85.121,290.138,85.121z"/>
	<path d="M345.731,121.591V94.975c0-7.159-3.622-9.434-9.097-9.434c-4.969,0-9.686,3.032-12.045,6.317v29.732h-6.316V80.909h6.316
		v5.896c2.864-3.369,8.424-6.907,14.488-6.907c8.507,0,12.971,4.296,12.971,13.14v28.554H345.731z"/>
	<path d="M360.642,101.208c0-11.792,8.423-21.311,20.046-21.311c12.298,0,19.541,9.603,19.541,21.815v1.601h-32.933
		c0.505,7.665,5.896,14.066,14.655,14.066c4.633,0,9.35-1.854,12.55-5.139l3.032,4.128c-4.043,4.043-9.518,6.232-16.172,6.232
		C369.318,122.602,360.642,113.926,360.642,101.208z M380.604,85.121c-8.676,0-12.972,7.328-13.308,13.561h26.7
		C393.911,92.617,389.868,85.121,380.604,85.121z"/>
	<path d="M405.199,116.201l3.285-4.548c2.695,3.116,7.833,5.812,13.393,5.812c6.232,0,9.602-2.948,9.602-6.991
		c0-9.854-25.185-3.79-25.185-18.867c0-6.317,5.476-11.708,15.162-11.708c6.906,0,11.791,2.611,15.076,5.896l-2.947,4.38
		c-2.443-2.948-6.907-5.138-12.129-5.138c-5.56,0-9.013,2.779-9.013,6.401c0,8.928,25.185,3.032,25.185,18.867
		c0,6.822-5.476,12.297-16.004,12.297C414.97,122.602,409.327,120.581,405.199,116.201z"/>
	<path d="M445.126,70.886c0-2.358,1.937-4.296,4.211-4.296c2.358,0,4.296,1.938,4.296,4.296s-1.938,4.211-4.296,4.211
		C447.063,75.097,445.126,73.245,445.126,70.886z M446.221,121.591V80.909h6.317v40.683H446.221z"/>
	<path d="M459.95,116.201l3.285-4.548c2.695,3.116,7.833,5.812,13.393,5.812c6.232,0,9.602-2.948,9.602-6.991
		c0-9.854-25.184-3.79-25.184-18.867c0-6.317,5.475-11.708,15.16-11.708c6.907,0,11.793,2.611,15.077,5.896l-2.948,4.38
		c-2.442-2.948-6.906-5.138-12.129-5.138c-5.559,0-9.012,2.779-9.012,6.401c0,8.928,25.184,3.032,25.184,18.867
		c0,6.822-5.475,12.297-16.003,12.297C469.721,122.602,464.077,120.581,459.95,116.201z"/>
	<path d="M526.998,121.591V97.923c0-4.97-2.611-6.57-6.738-6.57c-3.79,0-6.317,2.106-7.833,3.959v26.279h-12.972V65.411h12.972
		v20.468c2.442-2.863,7.243-5.98,14.066-5.98c9.265,0,13.477,5.223,13.477,12.719v28.975H526.998z"/>
	<path d="M545.025,101.208c0-11.792,8.928-21.311,21.646-21.311c12.045,0,20.805,8.845,20.805,22.658v2.779h-28.975
		c0.758,3.79,4.296,7.243,10.191,7.243c2.864,0,7.834-1.263,10.107-3.453l5.475,8.086c-4.043,3.622-10.781,5.391-17.014,5.391
		C554.711,122.602,545.025,114.432,545.025,101.208z M566.671,89.921c-5.643,0-7.833,4.043-8.338,6.991h16.761
		C574.757,94.048,572.652,89.921,566.671,89.921z"/>
	<path d="M616.199,121.591v-4.043c-2.526,3.032-7.412,5.054-12.634,5.054c-6.233,0-13.982-4.211-13.982-13.393
		c0-9.854,7.749-13.055,13.982-13.055c5.391,0,10.191,1.685,12.634,4.717v-4.886c0-3.537-3.032-5.896-8.254-5.896
		c-4.043,0-8.255,1.516-11.54,4.295l-4.632-8.17c5.222-4.464,12.213-6.317,18.446-6.317c9.77,0,18.951,3.622,18.951,16.257v25.437
		H616.199z M616.199,111.147v-3.622c-1.348-1.853-4.38-2.863-7.243-2.863c-3.453,0-6.486,1.516-6.486,4.717
		c0,3.2,3.033,4.717,6.486,4.717C611.82,114.095,614.852,113.084,616.199,111.147z"/>
	<path d="M636.922,121.591V65.411h12.972v56.181H636.922z"/>
	<path d="M660.338,110.642V92.196H653.6V80.909h6.738V69.791h12.887v11.118h8.255v11.287h-8.255v14.824
		c0,2.358,1.348,4.127,3.622,4.127c1.432,0,2.863-0.505,3.285-1.011l2.526,9.771c-1.601,1.517-4.801,2.695-9.602,2.695
		C664.802,122.602,660.338,118.475,660.338,110.642z"/>
	<path d="M713.907,121.591V97.923c0-4.97-2.611-6.57-6.738-6.57c-3.79,0-6.317,2.106-7.833,3.959v26.279h-12.972V65.411h12.972
		v20.468c2.442-2.863,7.243-5.98,14.065-5.98c9.266,0,13.477,5.223,13.477,12.719v28.975H713.907z"/>
</g>
</svg>
