<?xml version="1.0" encoding="utf-8"?>
<!-- Generator: Adobe Illustrator 17.1.0, SVG Export Plug-In . SVG Version: 6.00 Build 0)  -->
<!DOCTYPE svg PUBLIC "-//W3C//DTD SVG 1.1//EN" "http://www.w3.org/Graphics/SVG/1.1/DTD/svg11.dtd">
<svg version="1.1" id="Layer_1" xmlns="http://www.w3.org/2000/svg" xmlns:xlink="http://www.w3.org/1999/xlink" x="0px" y="0px"
	 viewBox="0 0 365 32.5" style="enable-background:new 0 0 365 32.5;" xml:space="preserve">
<style type="text/css">
	.st0{fill:#919195;}
	.st1{fill:#0065A4;}
	.st2{fill:#54534A;}
	.st3{fill:#00AEEF;}
</style>
<g>
	<g>
		<g>
			<g>
				<g>
					<g>
						<path class="st0" d="M49.955,22.612v-5.349H43.96v5.349h-2.704V9.916h2.704v4.987h5.995V9.916h2.723v12.697H49.955z"/>
						<path class="st0" d="M57.073,22.612V9.916h8.987v2.38h-6.282v2.664h6.148v2.379h-6.148v2.895h6.282v2.379H57.073z"/>
						<path class="st0" d="M78.85,22.612l-0.801-2.152h-5.444l-0.797,2.152h-3.065l4.892-12.697h3.389l4.892,12.697H78.85z
							 M75.33,12.618l-1.981,5.463h3.961L75.33,12.618z"/>
						<path class="st0" d="M84.885,22.612V9.916h2.723v10.318h5.368v2.379H84.885z"/>
						<path class="st0" d="M97.732,22.612V12.296h-3.713v-2.38h10.128v2.38h-3.693v10.316H97.732z"/>
						<path class="st0" d="M116.481,22.612v-5.349h-5.996v5.349h-2.702V9.916h2.702v4.987h5.996V9.916h2.723v12.697H116.481z"/>
					</g>
					<g>
						<path class="st1" d="M123.139,20.824l1.486-2.113c0.894,0.931,2.284,1.731,4.036,1.731c1.503,0,2.208-0.666,2.208-1.408
							c0-2.209-7.31-0.666-7.31-5.445c0-2.115,1.825-3.864,4.813-3.864c2.019,0,3.694,0.608,4.952,1.769l-1.505,2.018
							c-1.028-0.951-2.398-1.389-3.693-1.389c-1.144,0-1.79,0.495-1.79,1.257c0,1.998,7.294,0.646,7.294,5.388
							c0,2.322-1.676,4.073-5.084,4.073C126.089,22.841,124.337,22.023,123.139,20.824z"/>
						<path class="st1" d="M137.34,22.612V9.916h5.938c2.761,0,4.267,1.865,4.267,4.091c0,2.209-1.525,4.075-4.267,4.075h-3.234
							v4.531H137.34z M144.783,14.007c0-1.065-0.82-1.711-1.886-1.711h-2.853v3.407h2.853
							C143.963,15.703,144.783,15.055,144.783,14.007z"/>
						<path class="st1" d="M158.508,22.612l-0.802-2.152h-5.445l-0.797,2.152h-3.065l4.891-12.697h3.389l4.895,12.697H158.508z
							 M154.983,12.618l-1.979,5.463h3.959L154.983,12.618z"/>
						<path class="st1" d="M171.83,22.612l-2.492-4.511h-1.978v4.511h-2.704V9.916h5.938c2.645,0,4.283,1.731,4.283,4.091
							c0,2.228-1.425,3.447-2.796,3.771l2.872,4.835H171.83z M172.097,13.99c0-1.048-0.817-1.694-1.885-1.694h-2.852v3.425h2.852
							C171.28,15.722,172.097,15.074,172.097,13.99z"/>
						<path class="st1" d="M177.642,16.273c0-3.826,2.799-6.567,6.646-6.567c3.824,0,6.624,2.742,6.624,6.567
							c0,1.79-0.628,3.351-1.656,4.492l0.932,1.086l-1.884,1.543l-1.029-1.181c-0.877,0.399-1.905,0.628-2.988,0.628
							C180.441,22.841,177.642,20.099,177.642,16.273z M185.601,20.234l-1.39-1.639l1.884-1.542l1.39,1.639
							c0.419-0.667,0.647-1.504,0.647-2.419c0-2.38-1.502-4.168-3.843-4.168c-2.361,0-3.866,1.788-3.866,4.168
							c0,2.361,1.506,4.169,3.866,4.169C184.762,20.442,185.202,20.367,185.601,20.234z"/>
					</g>
				</g>
			</g>
			<g>
				<g>
					<path class="st2" d="M6.167,15.408c-0.587,0-1.067-0.479-1.067-1.066V6.585c0-0.588,0.481-1.067,1.067-1.067h1.304
						c0.587,0,1.067,0.479,1.067,1.067v4.627c0,0.588,0.479,1.067,1.067,1.067h3.007c0.587,0,1.066-0.479,1.066-1.067V6.585
						c0-0.588,0.481-1.067,1.067-1.067h1.329c0.586,0,1.067,0.479,1.067,1.067v7.757c0,0.587-0.481,1.066-1.067,1.066H6.167z"/>
				</g>
				<g>
					<path class="st1" d="M19.527,6.6c0-0.586,0.481-1.067,1.067-1.067h8.866c0.587,0,1.068,0.48,1.068,1.067v1.303
						c0,0.589-0.481,1.067-1.068,1.067h-5.736c-0.587,0-1.067,0.481-1.067,1.068v0.842c0,0.585,0.48,1.067,1.067,1.067h5.736
						c0.587,0,1.068,0.48,1.068,1.067v1.329c0,0.587-0.481,1.066-1.068,1.066h-8.866c-0.586,0-1.067-0.479-1.067-1.066V6.6z"/>
				</g>
				<g>
					<path class="st3" d="M30.527,26.465c0,0.589-0.481,1.067-1.068,1.067h-8.866c-0.586,0-1.067-0.479-1.067-1.067v-1.304
						c0-0.586,0.481-1.067,1.067-1.067h5.737c0.587,0,1.066-0.479,1.066-1.066v-0.842c0-0.586-0.479-1.068-1.066-1.068h-5.737
						c-0.586,0-1.067-0.478-1.067-1.065v-1.329c0-0.587,0.481-1.068,1.067-1.068h8.866c0.587,0,1.068,0.481,1.068,1.068V26.465z"/>
				</g>
				<g>
					<path class="st0" d="M16.075,17.636c0.586,0,1.067,0.481,1.067,1.067v7.753c0,0.588-0.481,1.068-1.067,1.068h-1.304
						c-0.589,0-1.068-0.48-1.068-1.068v-4.624c0-0.586-0.481-1.067-1.067-1.067H9.629c-0.587,0-1.067,0.481-1.067,1.067v4.624
						c0,0.588-0.479,1.068-1.066,1.068H6.167c-0.587,0-1.067-0.48-1.067-1.068v-7.753c0-0.586,0.48-1.067,1.067-1.067H16.075z"/>
				</g>
			</g>
		</g>
	</g>
	<g>
		<path class="st1" d="M193.188,12.615c-0.763,0-1.383-0.62-1.383-1.383c0-0.769,0.62-1.382,1.383-1.382
			c0.769,0,1.383,0.613,1.383,1.382C194.571,11.996,193.958,12.615,193.188,12.615z M193.188,10.04
			c-0.658,0-1.194,0.521-1.194,1.193c0,0.652,0.535,1.193,1.194,1.193c0.658,0,1.194-0.541,1.194-1.193
			C194.382,10.561,193.847,10.04,193.188,10.04z M193.566,12.028l-0.411-0.626h-0.287v0.626h-0.209v-1.585h0.646
			c0.267,0,0.502,0.189,0.502,0.483c0,0.352-0.313,0.469-0.404,0.469l0.424,0.633H193.566z M193.306,10.626h-0.437v0.587h0.437
			c0.137,0,0.287-0.124,0.287-0.287C193.593,10.75,193.443,10.626,193.306,10.626z"/>
	</g>
</g>
<g>
	<path d="M214.561,22.822V6.956h5.947c3.045,0,4.782,2.141,4.782,4.639c0,2.498-1.76,4.639-4.782,4.639h-4.591v6.589H214.561z
		 M223.862,11.594c0-1.999-1.404-3.402-3.497-3.402h-4.448v6.804h4.448C222.458,14.996,223.862,13.592,223.862,11.594z"/>
	<path d="M234.921,22.822v-1.356c-1.023,1.118-2.308,1.642-3.901,1.642c-1.975,0-4.02-1.356-4.02-3.83
		c0-2.498,2.022-3.806,4.02-3.806c1.594,0,2.902,0.523,3.901,1.642v-2.332c0-1.713-1.38-2.641-3.093-2.641
		c-1.427,0-2.545,0.5-3.592,1.689l-0.69-0.856c1.189-1.284,2.521-1.927,4.425-1.927c2.331,0,4.187,1.118,4.187,3.688v8.088H234.921z
		 M234.921,20.562v-2.521c-0.809-1.047-2.093-1.594-3.473-1.594c-1.903,0-3.14,1.213-3.14,2.855c0,1.617,1.237,2.831,3.14,2.831
		C232.828,22.132,234.112,21.609,234.921,20.562z"/>
	<path d="M240.247,20.61v-8.183h-1.903v-1.094h1.903v-3.14h1.261v3.14h2.332v1.094h-2.332v7.993c0,0.928,0.381,1.57,1.189,1.57
		c0.547,0,1.023-0.262,1.285-0.547l0.476,0.952c-0.452,0.428-1,0.714-1.951,0.714C240.985,23.108,240.247,22.18,240.247,20.61z"/>
	<path d="M246.788,20.61v-8.183h-1.903v-1.094h1.903v-3.14h1.261v3.14h2.331v1.094h-2.331v7.993c0,0.928,0.38,1.57,1.189,1.57
		c0.547,0,1.023-0.262,1.285-0.547l0.476,0.952c-0.452,0.428-1,0.714-1.951,0.714C247.525,23.108,246.788,22.18,246.788,20.61z"/>
	<path d="M252.424,17.065c0-3.331,2.355-6.019,5.543-6.019c3.497,0,5.423,2.783,5.423,6.09v0.333h-9.61
		c0.119,2.498,1.784,4.567,4.496,4.567c1.451,0,2.783-0.547,3.758-1.594l0.643,0.809c-1.142,1.189-2.593,1.855-4.496,1.855
		C254.827,23.108,252.424,20.61,252.424,17.065z M257.943,12.118c-2.712,0-4.068,2.378-4.163,4.377h8.35
		C262.106,14.544,260.822,12.118,257.943,12.118z"/>
	<path d="M266.576,22.822v-11.49h1.237v1.974c0.975-1.284,2.284-2.212,3.877-2.212v1.356c-0.214-0.048-0.381-0.048-0.619-0.048
		c-1.166,0-2.736,1.047-3.259,2.046v8.374H266.576z"/>
	<path d="M281.871,22.822v-7.779c0-2.212-1.118-2.878-2.784-2.878c-1.475,0-2.997,0.928-3.734,1.975v8.683h-1.237v-11.49h1.237
		v1.736c0.833-0.999,2.474-2.022,4.139-2.022c2.331,0,3.616,1.142,3.616,3.735v8.041H281.871z"/>
	<path d="M293.166,22.822V6.956h1.355v14.63h7.684v1.237H293.166z"/>
	<path d="M304.772,8.573c0-0.523,0.452-0.928,0.951-0.928c0.523,0,0.952,0.405,0.952,0.928c0,0.523-0.429,0.952-0.952,0.952
		C305.225,9.524,304.772,9.096,304.772,8.573z M305.105,22.822v-11.49h1.237v11.49H305.105z"/>
	<path d="M310.195,22.822V6.956h1.237v6.232c0.928-1.309,2.379-2.141,3.996-2.141c3.069,0,5.139,2.403,5.139,6.042
		c0,3.687-2.094,6.019-5.139,6.019c-1.713,0-3.188-0.928-3.996-2.117v1.832H310.195z M315.215,21.99c2.569,0,4.021-2.117,4.021-4.9
		s-1.451-4.924-4.021-4.924c-1.594,0-3.116,0.999-3.782,2.093v5.686C312.099,21.038,313.621,21.99,315.215,21.99z"/>
	<path d="M323.775,22.822v-11.49h1.237v1.974c0.976-1.284,2.283-2.212,3.877-2.212v1.356c-0.214-0.048-0.38-0.048-0.618-0.048
		c-1.166,0-2.735,1.047-3.259,2.046v8.374H323.775z"/>
	<path d="M338.617,22.822v-1.356c-1.022,1.118-2.307,1.642-3.9,1.642c-1.975,0-4.021-1.356-4.021-3.83
		c0-2.498,2.021-3.806,4.021-3.806c1.594,0,2.901,0.523,3.9,1.642v-2.332c0-1.713-1.379-2.641-3.092-2.641
		c-1.428,0-2.546,0.5-3.593,1.689l-0.689-0.856c1.189-1.284,2.521-1.927,4.425-1.927c2.331,0,4.187,1.118,4.187,3.688v8.088H338.617
		z M338.617,20.562v-2.521c-0.809-1.047-2.093-1.594-3.473-1.594c-1.903,0-3.14,1.213-3.14,2.855c0,1.617,1.236,2.831,3.14,2.831
		C336.524,22.132,337.809,21.609,338.617,20.562z"/>
	<path d="M343.706,22.822v-11.49h1.237v1.974c0.976-1.284,2.283-2.212,3.877-2.212v1.356c-0.214-0.048-0.38-0.048-0.618-0.048
		c-1.166,0-2.735,1.047-3.259,2.046v8.374H343.706z"/>
	<path d="M350.698,26.176c0.262,0.119,0.714,0.19,0.999,0.19c0.761,0,1.284-0.309,1.736-1.403l0.904-2.046l-4.853-11.585h1.379
		l4.188,10.039l4.139-10.039h1.403l-5.947,14.011c-0.618,1.451-1.594,2.141-2.949,2.141c-0.381,0-0.904-0.071-1.213-0.167
		L350.698,26.176z"/>
</g>
</svg>
