<?xml version="1.0" encoding="utf-8"?>
<!-- Generator: Adobe Illustrator 17.1.0, SVG Export Plug-In . SVG Version: 6.00 Build 0)  -->
<!DOCTYPE svg PUBLIC "-//W3C//DTD SVG 1.1//EN" "http://www.w3.org/Graphics/SVG/1.1/DTD/svg11.dtd">
<svg version="1.1" xmlns="http://www.w3.org/2000/svg" xmlns:xlink="http://www.w3.org/1999/xlink" x="0px" y="0px"
	 viewBox="0 0 365 32.5" style="enable-background:new 0 0 365 32.5;" xml:space="preserve">
<style type="text/css">
	.st0{opacity:0.3;}
	.st1{fill:#231F20;}
	.st2{fill:#FFFFFF;}
	.st3{fill:#00AAFF;}
	.st4{fill:#0065A4;}
	.st5{fill:#D1D1D1;}
	.st6{display:none;}
	.st7{display:inline;}
	.st8{fill:none;}
</style>
<g id="Layer_1">
	<g class="st0">
		<path class="st1" d="M215.561,23.822V7.956h5.947c3.045,0,4.782,2.141,4.782,4.639c0,2.498-1.76,4.639-4.782,4.639h-4.591v6.589
			H215.561z M224.862,12.594c0-1.999-1.404-3.402-3.497-3.402h-4.448v6.804h4.448C223.458,15.996,224.862,14.592,224.862,12.594z"/>
		<path class="st1" d="M235.921,23.822v-1.356c-1.023,1.118-2.308,1.642-3.901,1.642c-1.975,0-4.02-1.356-4.02-3.83
			c0-2.498,2.022-3.806,4.02-3.806c1.594,0,2.902,0.523,3.901,1.642v-2.332c0-1.713-1.38-2.641-3.093-2.641
			c-1.427,0-2.545,0.5-3.592,1.689l-0.69-0.856c1.189-1.284,2.521-1.927,4.425-1.927c2.331,0,4.187,1.118,4.187,3.688v8.088H235.921
			z M235.921,21.562v-2.521c-0.809-1.047-2.093-1.594-3.473-1.594c-1.903,0-3.14,1.213-3.14,2.855c0,1.617,1.237,2.831,3.14,2.831
			C233.828,23.132,235.112,22.609,235.921,21.562z"/>
		<path class="st1" d="M241.247,21.61v-8.183h-1.903v-1.094h1.903v-3.14h1.261v3.14h2.332v1.094h-2.332v7.993
			c0,0.928,0.381,1.57,1.189,1.57c0.547,0,1.023-0.262,1.285-0.547l0.476,0.952c-0.452,0.428-1,0.714-1.951,0.714
			C241.985,24.108,241.247,23.18,241.247,21.61z"/>
		<path class="st1" d="M247.788,21.61v-8.183h-1.903v-1.094h1.903v-3.14h1.261v3.14h2.331v1.094h-2.331v7.993
			c0,0.928,0.38,1.57,1.189,1.57c0.547,0,1.023-0.262,1.285-0.547l0.476,0.952c-0.452,0.428-1,0.714-1.951,0.714
			C248.525,24.108,247.788,23.18,247.788,21.61z"/>
		<path class="st1" d="M253.424,18.065c0-3.331,2.355-6.019,5.543-6.019c3.497,0,5.423,2.783,5.423,6.09v0.333h-9.61
			c0.119,2.498,1.784,4.567,4.496,4.567c1.451,0,2.783-0.547,3.758-1.594l0.643,0.809c-1.142,1.189-2.593,1.855-4.496,1.855
			C255.827,24.108,253.424,21.61,253.424,18.065z M258.943,13.118c-2.712,0-4.068,2.378-4.163,4.377h8.35
			C263.106,15.544,261.822,13.118,258.943,13.118z"/>
		<path class="st1" d="M267.576,23.822v-11.49h1.237v1.974c0.975-1.284,2.284-2.212,3.877-2.212v1.356
			c-0.214-0.048-0.381-0.048-0.619-0.048c-1.166,0-2.736,1.047-3.259,2.046v8.374H267.576z"/>
		<path class="st1" d="M282.871,23.822v-7.779c0-2.212-1.118-2.878-2.784-2.878c-1.475,0-2.997,0.928-3.734,1.975v8.683h-1.237
			v-11.49h1.237v1.736c0.833-0.999,2.474-2.022,4.139-2.022c2.331,0,3.616,1.142,3.616,3.735v8.041H282.871z"/>
		<path class="st1" d="M294.166,23.822V7.956h1.355v14.63h7.684v1.237H294.166z"/>
		<path class="st1" d="M305.772,9.573c0-0.523,0.452-0.928,0.951-0.928c0.523,0,0.952,0.405,0.952,0.928
			c0,0.523-0.429,0.952-0.952,0.952C306.225,10.524,305.772,10.096,305.772,9.573z M306.105,23.822v-11.49h1.237v11.49H306.105z"/>
		<path class="st1" d="M311.195,23.822V7.956h1.237v6.232c0.928-1.309,2.379-2.141,3.996-2.141c3.069,0,5.139,2.403,5.139,6.042
			c0,3.687-2.094,6.019-5.139,6.019c-1.713,0-3.188-0.928-3.996-2.117v1.832H311.195z M316.215,22.99c2.569,0,4.021-2.117,4.021-4.9
			s-1.451-4.924-4.021-4.924c-1.594,0-3.116,0.999-3.782,2.093v5.686C313.099,22.038,314.621,22.99,316.215,22.99z"/>
		<path class="st1" d="M324.775,23.822v-11.49h1.237v1.974c0.976-1.284,2.283-2.212,3.877-2.212v1.356
			c-0.214-0.048-0.38-0.048-0.618-0.048c-1.166,0-2.735,1.047-3.259,2.046v8.374H324.775z"/>
		<path class="st1" d="M339.617,23.822v-1.356c-1.022,1.118-2.307,1.642-3.9,1.642c-1.975,0-4.021-1.356-4.021-3.83
			c0-2.498,2.021-3.806,4.021-3.806c1.594,0,2.901,0.523,3.9,1.642v-2.332c0-1.713-1.379-2.641-3.092-2.641
			c-1.428,0-2.546,0.5-3.593,1.689l-0.689-0.856c1.189-1.284,2.521-1.927,4.425-1.927c2.331,0,4.187,1.118,4.187,3.688v8.088
			H339.617z M339.617,21.562v-2.521c-0.809-1.047-2.093-1.594-3.473-1.594c-1.903,0-3.14,1.213-3.14,2.855
			c0,1.617,1.236,2.831,3.14,2.831C337.524,23.132,338.809,22.609,339.617,21.562z"/>
		<path class="st1" d="M344.706,23.822v-11.49h1.237v1.974c0.976-1.284,2.283-2.212,3.877-2.212v1.356
			c-0.214-0.048-0.38-0.048-0.618-0.048c-1.166,0-2.735,1.047-3.259,2.046v8.374H344.706z"/>
		<path class="st1" d="M351.698,27.176c0.262,0.119,0.714,0.19,0.999,0.19c0.761,0,1.284-0.309,1.736-1.403l0.904-2.046
			l-4.853-11.585h1.379l4.188,10.039l4.139-10.039h1.403l-5.947,14.011c-0.618,1.451-1.594,2.141-2.949,2.141
			c-0.381,0-0.904-0.071-1.213-0.167L351.698,27.176z"/>
	</g>
	<g class="st0">
		<g>
			<path class="st1" d="M52.943,23.623v-5.586h-6.261v5.586h-2.823V10.364h2.823v5.208h6.261v-5.208h2.843v13.259H52.943z"/>
			<path class="st1" d="M60.377,23.623V10.364h9.385v2.486h-6.561v2.782h6.42v2.485h-6.42v3.023h6.561v2.484H60.377z"/>
			<path class="st1" d="M83.119,23.623l-0.836-2.247h-5.685l-0.833,2.247h-3.201l5.108-13.259h3.539l5.109,13.259H83.119z
				 M79.442,13.186l-2.069,5.706h4.136L79.442,13.186z"/>
			<path class="st1" d="M89.421,23.623V10.364h2.843v10.775h5.606v2.484H89.421z"/>
			<path class="st1" d="M102.838,23.623V12.849H98.96v-2.486h10.577v2.486h-3.856v10.774H102.838z"/>
			<path class="st1" d="M122.417,23.623v-5.586h-6.262v5.586h-2.822V10.364h2.822v5.208h6.262v-5.208h2.844v13.259H122.417z"/>
		</g>
		<g>
			<path class="st1" d="M129.371,21.755l1.551-2.206c0.934,0.973,2.385,1.808,4.215,1.808c1.569,0,2.306-0.696,2.306-1.47
				c0-2.307-7.634-0.696-7.634-5.686c0-2.208,1.906-4.036,5.026-4.036c2.109,0,3.858,0.635,5.172,1.847l-1.572,2.108
				c-1.073-0.993-2.505-1.451-3.856-1.451c-1.195,0-1.87,0.517-1.87,1.312c0,2.087,7.617,0.675,7.617,5.627
				c0,2.425-1.751,4.254-5.31,4.254C132.451,23.862,130.621,23.007,129.371,21.755z"/>
			<path class="st1" d="M144.201,23.623V10.364h6.201c2.883,0,4.456,1.948,4.456,4.273c0,2.307-1.593,4.255-4.456,4.255h-3.377
				v4.731H144.201z M151.974,14.636c0-1.112-0.856-1.787-1.969-1.787h-2.98v3.558h2.98
				C151.118,16.407,151.974,15.731,151.974,14.636z"/>
			<path class="st1" d="M166.307,23.623l-0.837-2.247h-5.687l-0.832,2.247h-3.201l5.107-13.259h3.539l5.112,13.259H166.307z
				 M162.625,13.186l-2.067,5.706h4.135L162.625,13.186z"/>
			<path class="st1" d="M180.22,23.623l-2.603-4.711h-2.066v4.711h-2.823V10.364h6.201c2.762,0,4.472,1.808,4.472,4.273
				c0,2.327-1.488,3.6-2.92,3.938l3,5.049H180.22z M180.498,14.619c0-1.095-0.853-1.769-1.968-1.769h-2.979v3.577h2.979
				C179.645,16.427,180.498,15.751,180.498,14.619z"/>
			<path class="st1" d="M186.289,17.003c0-3.995,2.923-6.858,6.941-6.858c3.993,0,6.918,2.863,6.918,6.858
				c0,1.869-0.655,3.499-1.729,4.691l0.974,1.134l-1.967,1.611l-1.075-1.233c-0.916,0.417-1.989,0.656-3.121,0.656
				C189.212,23.862,186.289,20.999,186.289,17.003z M194.601,21.139l-1.452-1.711l1.967-1.61l1.452,1.711
				c0.438-0.696,0.675-1.57,0.675-2.527c0-2.485-1.568-4.353-4.013-4.353c-2.465,0-4.038,1.868-4.038,4.353
				c0,2.465,1.572,4.354,4.038,4.354C193.725,21.357,194.184,21.278,194.601,21.139z"/>
		</g>
		<g>
			<path class="st1" d="M7.214,16.1c-0.613,0-1.115-0.5-1.115-1.113V6.886c0-0.614,0.502-1.114,1.115-1.114h1.362
				c0.613,0,1.115,0.5,1.115,1.114v4.832c0,0.614,0.5,1.114,1.115,1.114h3.141c0.613,0,1.113-0.5,1.113-1.114V6.886
				c0-0.614,0.502-1.114,1.115-1.114h1.388c0.612,0,1.114,0.5,1.114,1.114v8.101c0,0.613-0.502,1.113-1.114,1.113H7.214z"/>
		</g>
		<g>
			<path class="st1" d="M21.166,6.9c0-0.612,0.502-1.114,1.115-1.114h9.259c0.613,0,1.115,0.502,1.115,1.114v1.361
				c0,0.615-0.502,1.114-1.115,1.114h-5.991c-0.613,0-1.115,0.503-1.115,1.115v0.879c0,0.611,0.501,1.114,1.115,1.114h5.991
				c0.613,0,1.115,0.502,1.115,1.115v1.388c0,0.613-0.502,1.113-1.115,1.113h-9.259c-0.612,0-1.115-0.5-1.115-1.113V6.9z"/>
		</g>
		<g>
			<path class="st1" d="M32.654,27.646c0,0.615-0.502,1.115-1.115,1.115h-9.259c-0.612,0-1.115-0.5-1.115-1.115v-1.361
				c0-0.612,0.502-1.114,1.115-1.114h5.992c0.613,0,1.113-0.5,1.113-1.113v-0.88c0-0.612-0.5-1.116-1.113-1.116h-5.992
				c-0.612,0-1.115-0.499-1.115-1.113v-1.388c0-0.613,0.502-1.115,1.115-1.115h9.259c0.613,0,1.115,0.502,1.115,1.115V27.646z"/>
		</g>
		<g>
			<path class="st1" d="M17.562,18.426c0.612,0,1.114,0.502,1.114,1.115v8.097c0,0.614-0.502,1.115-1.114,1.115H16.2
				c-0.615,0-1.116-0.501-1.116-1.115v-4.829c0-0.612-0.502-1.114-1.115-1.114h-3.141c-0.613,0-1.115,0.503-1.115,1.114v4.829
				c0,0.614-0.5,1.115-1.113,1.115H7.214c-0.613,0-1.115-0.501-1.115-1.115v-8.097c0-0.612,0.501-1.115,1.115-1.115H17.562z"/>
		</g>
		<g>
			<path class="st1" d="M202.524,13.183c-0.797,0-1.444-0.647-1.444-1.444c0-0.803,0.647-1.444,1.444-1.444
				c0.803,0,1.444,0.64,1.444,1.444C203.968,12.536,203.328,13.183,202.524,13.183z M202.524,10.493
				c-0.688,0-1.246,0.545-1.246,1.246c0,0.681,0.559,1.246,1.246,1.246c0.688,0,1.246-0.565,1.246-1.246
				C203.771,11.037,203.212,10.493,202.524,10.493z M202.919,12.57l-0.429-0.654h-0.299v0.654h-0.218v-1.655h0.674
				c0.279,0,0.524,0.198,0.524,0.504c0,0.368-0.327,0.49-0.421,0.49l0.442,0.661H202.919z M202.647,11.106h-0.456v0.613h0.456
				c0.143,0,0.3-0.129,0.3-0.3C202.947,11.235,202.79,11.106,202.647,11.106z"/>
		</g>
	</g>
	<g>
		<path class="st2" d="M214.561,22.822V6.956h5.947c3.045,0,4.782,2.141,4.782,4.639c0,2.498-1.76,4.639-4.782,4.639h-4.591v6.589
			H214.561z M223.862,11.594c0-1.999-1.404-3.402-3.497-3.402h-4.448v6.804h4.448C222.458,14.996,223.862,13.592,223.862,11.594z"/>
		<path class="st2" d="M234.921,22.822v-1.356c-1.023,1.118-2.308,1.642-3.901,1.642c-1.975,0-4.02-1.356-4.02-3.83
			c0-2.498,2.022-3.806,4.02-3.806c1.594,0,2.902,0.523,3.901,1.642v-2.332c0-1.713-1.38-2.641-3.093-2.641
			c-1.427,0-2.545,0.5-3.592,1.689l-0.69-0.856c1.189-1.284,2.521-1.927,4.425-1.927c2.331,0,4.187,1.118,4.187,3.688v8.088H234.921
			z M234.921,20.562v-2.521c-0.809-1.047-2.093-1.594-3.473-1.594c-1.903,0-3.14,1.213-3.14,2.855c0,1.617,1.237,2.831,3.14,2.831
			C232.828,22.132,234.112,21.609,234.921,20.562z"/>
		<path class="st2" d="M240.247,20.61v-8.183h-1.903v-1.094h1.903v-3.14h1.261v3.14h2.332v1.094h-2.332v7.993
			c0,0.928,0.381,1.57,1.189,1.57c0.547,0,1.023-0.262,1.285-0.547l0.476,0.952c-0.452,0.428-1,0.714-1.951,0.714
			C240.985,23.108,240.247,22.18,240.247,20.61z"/>
		<path class="st2" d="M246.788,20.61v-8.183h-1.903v-1.094h1.903v-3.14h1.261v3.14h2.331v1.094h-2.331v7.993
			c0,0.928,0.38,1.57,1.189,1.57c0.547,0,1.023-0.262,1.285-0.547l0.476,0.952c-0.452,0.428-1,0.714-1.951,0.714
			C247.525,23.108,246.788,22.18,246.788,20.61z"/>
		<path class="st2" d="M252.424,17.065c0-3.331,2.355-6.019,5.543-6.019c3.497,0,5.423,2.783,5.423,6.09v0.333h-9.61
			c0.119,2.498,1.784,4.567,4.496,4.567c1.451,0,2.783-0.547,3.758-1.594l0.643,0.809c-1.142,1.189-2.593,1.855-4.496,1.855
			C254.827,23.108,252.424,20.61,252.424,17.065z M257.943,12.118c-2.712,0-4.068,2.378-4.163,4.377h8.35
			C262.106,14.544,260.822,12.118,257.943,12.118z"/>
		<path class="st2" d="M266.576,22.822v-11.49h1.237v1.974c0.975-1.284,2.284-2.212,3.877-2.212v1.356
			c-0.214-0.048-0.381-0.048-0.619-0.048c-1.166,0-2.736,1.047-3.259,2.046v8.374H266.576z"/>
		<path class="st2" d="M281.871,22.822v-7.779c0-2.212-1.118-2.878-2.784-2.878c-1.475,0-2.997,0.928-3.734,1.975v8.683h-1.237
			v-11.49h1.237v1.736c0.833-0.999,2.474-2.022,4.139-2.022c2.331,0,3.616,1.142,3.616,3.735v8.041H281.871z"/>
		<path class="st2" d="M293.166,22.822V6.956h1.355v14.63h7.684v1.237H293.166z"/>
		<path class="st2" d="M304.772,8.573c0-0.523,0.452-0.928,0.951-0.928c0.523,0,0.952,0.405,0.952,0.928
			c0,0.523-0.429,0.952-0.952,0.952C305.225,9.524,304.772,9.096,304.772,8.573z M305.105,22.822v-11.49h1.237v11.49H305.105z"/>
		<path class="st2" d="M310.195,22.822V6.956h1.237v6.232c0.928-1.309,2.379-2.141,3.996-2.141c3.069,0,5.139,2.403,5.139,6.042
			c0,3.687-2.094,6.019-5.139,6.019c-1.713,0-3.188-0.928-3.996-2.117v1.832H310.195z M315.215,21.99c2.569,0,4.021-2.117,4.021-4.9
			s-1.451-4.924-4.021-4.924c-1.594,0-3.116,0.999-3.782,2.093v5.686C312.099,21.038,313.621,21.99,315.215,21.99z"/>
		<path class="st2" d="M323.775,22.822v-11.49h1.237v1.974c0.976-1.284,2.283-2.212,3.877-2.212v1.356
			c-0.214-0.048-0.38-0.048-0.618-0.048c-1.166,0-2.735,1.047-3.259,2.046v8.374H323.775z"/>
		<path class="st2" d="M338.617,22.822v-1.356c-1.022,1.118-2.307,1.642-3.9,1.642c-1.975,0-4.021-1.356-4.021-3.83
			c0-2.498,2.021-3.806,4.021-3.806c1.594,0,2.901,0.523,3.9,1.642v-2.332c0-1.713-1.379-2.641-3.092-2.641
			c-1.428,0-2.546,0.5-3.593,1.689l-0.689-0.856c1.189-1.284,2.521-1.927,4.425-1.927c2.331,0,4.187,1.118,4.187,3.688v8.088
			H338.617z M338.617,20.562v-2.521c-0.809-1.047-2.093-1.594-3.473-1.594c-1.903,0-3.14,1.213-3.14,2.855
			c0,1.617,1.236,2.831,3.14,2.831C336.524,22.132,337.809,21.609,338.617,20.562z"/>
		<path class="st2" d="M343.706,22.822v-11.49h1.237v1.974c0.976-1.284,2.283-2.212,3.877-2.212v1.356
			c-0.214-0.048-0.38-0.048-0.618-0.048c-1.166,0-2.735,1.047-3.259,2.046v8.374H343.706z"/>
		<path class="st2" d="M350.698,26.176c0.262,0.119,0.714,0.19,0.999,0.19c0.761,0,1.284-0.309,1.736-1.403l0.904-2.046
			l-4.853-11.585h1.379l4.188,10.039l4.139-10.039h1.403l-5.947,14.011c-0.618,1.451-1.594,2.141-2.949,2.141
			c-0.381,0-0.904-0.071-1.213-0.167L350.698,26.176z"/>
	</g>
	<g>
		<g>
			<path class="st2" d="M51.943,22.623v-5.586h-6.261v5.586h-2.823V9.364h2.823v5.208h6.261V9.364h2.843v13.259H51.943z"/>
			<path class="st2" d="M59.377,22.623V9.364h9.385v2.486h-6.561v2.782h6.42v2.485h-6.42v3.023h6.561v2.484H59.377z"/>
			<path class="st2" d="M82.119,22.623l-0.836-2.247h-5.685l-0.833,2.247h-3.201l5.108-13.259h3.539l5.109,13.259H82.119z
				 M78.442,12.186l-2.069,5.706h4.136L78.442,12.186z"/>
			<path class="st2" d="M88.421,22.623V9.364h2.843v10.775h5.606v2.484H88.421z"/>
			<path class="st2" d="M101.838,22.623V11.849H97.96V9.364h10.577v2.486h-3.856v10.774H101.838z"/>
			<path class="st2" d="M121.417,22.623v-5.586h-6.262v5.586h-2.822V9.364h2.822v5.208h6.262V9.364h2.844v13.259H121.417z"/>
		</g>
		<g>
			<path class="st3" d="M128.371,20.755l1.551-2.206c0.934,0.973,2.385,1.808,4.215,1.808c1.569,0,2.306-0.696,2.306-1.47
				c0-2.307-7.634-0.696-7.634-5.686c0-2.208,1.906-4.036,5.026-4.036c2.109,0,3.858,0.635,5.172,1.847l-1.572,2.108
				c-1.073-0.993-2.505-1.451-3.856-1.451c-1.195,0-1.87,0.517-1.87,1.312c0,2.087,7.617,0.675,7.617,5.627
				c0,2.425-1.751,4.254-5.31,4.254C131.451,22.862,129.621,22.007,128.371,20.755z"/>
			<path class="st3" d="M143.201,22.623V9.364h6.201c2.883,0,4.456,1.948,4.456,4.273c0,2.307-1.593,4.255-4.456,4.255h-3.377v4.731
				H143.201z M150.974,13.636c0-1.112-0.856-1.787-1.969-1.787h-2.98v3.558h2.98C150.118,15.407,150.974,14.731,150.974,13.636z"/>
			<path class="st3" d="M165.307,22.623l-0.837-2.247h-5.687l-0.832,2.247h-3.201l5.107-13.259h3.539l5.112,13.259H165.307z
				 M161.625,12.186l-2.067,5.706h4.135L161.625,12.186z"/>
			<path class="st3" d="M179.22,22.623l-2.603-4.711h-2.066v4.711h-2.823V9.364h6.201c2.762,0,4.472,1.808,4.472,4.273
				c0,2.327-1.488,3.6-2.92,3.938l3,5.049H179.22z M179.498,13.619c0-1.095-0.853-1.769-1.968-1.769h-2.979v3.577h2.979
				C178.645,15.427,179.498,14.751,179.498,13.619z"/>
			<path class="st3" d="M185.289,16.003c0-3.995,2.923-6.858,6.941-6.858c3.993,0,6.918,2.863,6.918,6.858
				c0,1.869-0.655,3.499-1.729,4.691l0.974,1.134l-1.967,1.611l-1.075-1.233c-0.916,0.417-1.989,0.656-3.121,0.656
				C188.212,22.862,185.289,19.999,185.289,16.003z M193.601,20.139l-1.452-1.711l1.967-1.61l1.452,1.711
				c0.438-0.696,0.675-1.57,0.675-2.527c0-2.485-1.568-4.353-4.013-4.353c-2.465,0-4.038,1.868-4.038,4.353
				c0,2.465,1.572,4.354,4.038,4.354C192.725,20.357,193.184,20.278,193.601,20.139z"/>
		</g>
		<g>
			<path class="st1" d="M6.214,15.1c-0.613,0-1.115-0.5-1.115-1.113V5.886c0-0.614,0.502-1.114,1.115-1.114h1.362
				c0.613,0,1.115,0.5,1.115,1.114v4.832c0,0.614,0.5,1.114,1.115,1.114h3.141c0.613,0,1.113-0.5,1.113-1.114V5.886
				c0-0.614,0.502-1.114,1.115-1.114h1.388c0.612,0,1.114,0.5,1.114,1.114v8.101c0,0.613-0.502,1.113-1.114,1.113H6.214z"/>
		</g>
		<g>
			<path class="st4" d="M20.166,5.9c0-0.612,0.502-1.114,1.115-1.114h9.259c0.613,0,1.115,0.502,1.115,1.114v1.361
				c0,0.615-0.502,1.114-1.115,1.114h-5.991c-0.613,0-1.115,0.503-1.115,1.115v0.879c0,0.611,0.501,1.114,1.115,1.114h5.991
				c0.613,0,1.115,0.502,1.115,1.115v1.388c0,0.613-0.502,1.113-1.115,1.113h-9.259c-0.612,0-1.115-0.5-1.115-1.113V5.9z"/>
		</g>
		<g>
			<path class="st3" d="M31.654,26.646c0,0.615-0.502,1.115-1.115,1.115h-9.259c-0.612,0-1.115-0.5-1.115-1.115v-1.361
				c0-0.612,0.502-1.114,1.115-1.114h5.992c0.613,0,1.113-0.5,1.113-1.113v-0.88c0-0.612-0.5-1.116-1.113-1.116h-5.992
				c-0.612,0-1.115-0.499-1.115-1.113v-1.388c0-0.613,0.502-1.115,1.115-1.115h9.259c0.613,0,1.115,0.502,1.115,1.115V26.646z"/>
		</g>
		<g>
			<path class="st5" d="M16.562,17.426c0.612,0,1.114,0.502,1.114,1.115v8.097c0,0.614-0.502,1.115-1.114,1.115H15.2
				c-0.615,0-1.116-0.501-1.116-1.115v-4.829c0-0.612-0.502-1.114-1.115-1.114H9.829c-0.613,0-1.115,0.503-1.115,1.114v4.829
				c0,0.614-0.5,1.115-1.113,1.115H6.214c-0.613,0-1.115-0.501-1.115-1.115v-8.097c0-0.612,0.501-1.115,1.115-1.115H16.562z"/>
		</g>
		<g>
			<path class="st3" d="M201.524,12.183c-0.797,0-1.444-0.647-1.444-1.444c0-0.803,0.647-1.444,1.444-1.444
				c0.803,0,1.444,0.64,1.444,1.444C202.968,11.536,202.328,12.183,201.524,12.183z M201.524,9.493
				c-0.688,0-1.246,0.545-1.246,1.246c0,0.681,0.559,1.246,1.246,1.246c0.688,0,1.246-0.565,1.246-1.246
				C202.771,10.037,202.212,9.493,201.524,9.493z M201.919,11.57l-0.429-0.654h-0.299v0.654h-0.218V9.915h0.674
				c0.279,0,0.524,0.198,0.524,0.504c0,0.368-0.327,0.49-0.421,0.49l0.442,0.661H201.919z M201.647,10.106h-0.456v0.613h0.456
				c0.143,0,0.3-0.129,0.3-0.3C201.947,10.235,201.79,10.106,201.647,10.106z"/>
		</g>
	</g>
</g>
<g id="Layer_2" class="st6">
	
		<text transform="matrix(1 0 0 1 212.086 56.8223)" style="display:inline;fill:none; font-family:'ProximaNova-Light'; font-size:23.7842;">Pattern Library</text>
</g>
</svg>
