<?xml version="1.0" encoding="utf-8"?>
<!-- Generator: Adobe Illustrator 17.1.0, SVG Export Plug-In . SVG Version: 6.00 Build 0)  -->
<!DOCTYPE svg PUBLIC "-//W3C//DTD SVG 1.1//EN" "http://www.w3.org/Graphics/SVG/1.1/DTD/svg11.dtd">
<svg version="1.1" id="5-stars" xmlns="http://www.w3.org/2000/svg" xmlns:xlink="http://www.w3.org/1999/xlink" x="0px" y="0px"
	 viewBox="0 0 165.778 30.864" style="enable-background:new 0 0 165.778 30.864;" xml:space="preserve">
<style type="text/css">
	.star{fill:#c4bfb3;}
</style>
<path class="star" d="M31.318,11.871l-10.339-1.502L16.355,1l-4.624,9.369L1.392,11.871l7.482,7.293L7.108,29.461l9.248-4.862
	l9.248,4.862l-1.766-10.297L31.318,11.871L31.318,11.871z"/>
<path class="star" d="M64.652,11.871l-10.339-1.502L49.689,1l-4.624,9.369l-10.339,1.502l7.482,7.293l-1.766,10.297l9.248-4.862
	l9.248,4.862L57.17,19.164L64.652,11.871L64.652,11.871z"/>
<path class="star" d="M97.985,11.871l-10.339-1.502L83.022,1l-4.624,9.369l-10.339,1.502l7.482,7.293l-1.766,10.297l9.248-4.862
	l9.248,4.862l-1.766-10.297L97.985,11.871L97.985,11.871z"/>
<path class="star" d="M131.318,11.871l-10.339-1.502L116.355,1l-4.624,9.369l-10.339,1.502l7.482,7.293l-1.766,10.297l9.248-4.862
	l9.248,4.862l-1.766-10.297L131.318,11.871L131.318,11.871z"/>
<path class="star" d="M164.652,11.871l-10.339-1.502L149.689,1l-4.624,9.369l-10.339,1.502l7.482,7.293l-1.766,10.297l9.248-4.862
	l9.248,4.862l-1.766-10.297L164.652,11.871L164.652,11.871z"/>
</svg>
